<?xml version="1.0" encoding="utf-8"?>
<!-- Generator: Adobe Illustrator 24.1.0, SVG Export Plug-In . SVG Version: 6.00 Build 0)  -->
<svg version="1.1" id="Layer_1" xmlns="http://www.w3.org/2000/svg" xmlns:xlink="http://www.w3.org/1999/xlink" x="0px" y="0px"
	 viewBox="0 0 360 288" style="enable-background:new 0 0 360 288;" xml:space="preserve">
<style type="text/css">
	.st0{fill:#FFAE00;}
	.st1{fill:#1A1A1A;}
	.st2{fill:#FFA800;}
	.st3{fill:#FFFFFF;}
</style>
<g>
	<rect y="0" class="st0" width="360" height="288"/>
	<g>
		<g>
			<g>
				<path class="st1" d="M148.87,288h191.18c-5.13-6.2-9.9-12.24-14.26-18.14c-8.1-10.96-14.77-21.41-19.75-31.41
					c-4.62-9.27-7.8-18.19-9.45-26.66c-3-15.47-0.67-29.88,4.68-42.41c5.02-11.76,12.44-22.13,19.3-31.71
					c11.96-16.69,20.52-32.09,14.25-44.04c-6.5-12.35-24.3-21.61-41.29-30.62c-15.37-8.14-28.8-15.15-30.22-22.41
					c-1.14-5.89,7.89-11.11,16.48-15.51c7.87-4.03,14.59-8.37,12.71-11.96c-2.36-4.47-11.7-7.53-21.02-10.98
					C256.63,1.43,241.65,0.72,226.53,0c8.05,3.43,16.41,6.8,16.64,10.93c0.21,4.12-9.07,7.88-19.43,11.89
					c-11.34,4.39-23.31,8.9-25.32,15.49c-1.98,6.56,8.5,14.37,20.66,22.58c13.47,9.1,27.79,19.19,28.45,31.1
					c0.33,6.27-3.22,13.19-9.31,20.06c-7.07,7.98-17.21,16.09-28.48,25.15c-12.34,9.91-25.63,20.56-37.34,32.97
					c-12.21,12.94-22.43,27.85-27.53,44.64c-2.69,8.87-4.03,18.37-3.95,28.37c0.09,10.59,1.78,21.85,4.8,33.71
					C146.63,280.52,147.7,284.23,148.87,288z"/>
				<g>
					<path class="st2" d="M161.38,276.27c1.14,3.84,2.43,7.75,3.84,11.73h4.74c-1.48-4.04-2.85-8.01-4.05-11.9
						c-3.62-11.76-5.9-22.93-6.56-33.45c-0.62-9.91,0.19-19.35,2.38-28.17c4.14-16.64,13.47-31.5,24.9-44.39
						c10.95-12.34,23.57-22.95,35.29-32.83c10.71-9.02,20.35-17.12,26.95-25.07c5.69-6.86,8.85-13.78,8.19-20.01
						c-1.28-11.98-16.02-21.95-29.88-31.05c-12.51-8.21-23.36-15.92-21.72-22.57c1.63-6.53,13.32-11.11,24.35-15.5
						c10.09-4.01,19.11-7.83,18.69-11.9c-0.45-4.18-8.92-7.51-17.12-10.94c-0.36-0.02-0.73-0.03-1.09-0.05
						c8.16,3.43,16.61,6.77,17.01,10.94c0.38,4.08-8.71,7.88-18.86,11.89c-11.1,4.39-22.85,8.95-24.57,15.49
						c-1.72,6.63,9.05,14.36,21.48,22.57c13.78,9.09,28.42,19.09,29.56,31.06c0.58,6.24-2.66,13.16-8.44,20.02
						c-6.7,7.95-16.46,16.05-27.29,25.09c-11.86,9.88-24.63,20.51-35.75,32.86c-11.6,12.9-21.13,27.77-25.49,44.44
						c-2.3,8.83-3.24,18.29-2.73,28.22C155.75,253.3,157.89,264.49,161.38,276.27z"/>
				</g>
				<g>
					<path class="st2" d="M284.75,62.76c16.59,9.02,34.01,18.35,39.82,30.67c5.67,12.08-3.9,27.44-16.93,44.18
						c-7.48,9.62-15.57,20.01-21.33,31.86c-6.12,12.58-9.35,27.05-7.22,42.67c1.16,8.52,3.85,17.51,7.97,26.86
						c4.45,10.06,10.58,20.61,18.13,31.67c3.85,5.64,8.08,11.41,12.62,17.33h4.46c-4.66-5.98-8.99-11.81-12.94-17.5
						c-7.66-11.04-13.9-21.57-18.46-31.62c-4.23-9.33-7.01-18.31-8.27-26.82c-2.3-15.59,0.74-30.05,6.71-42.62
						c5.62-11.83,13.57-22.22,20.92-31.83c12.81-16.73,22.18-32.1,16.39-44.15c-5.95-12.33-23.45-21.65-40.12-30.66
						c-15.07-8.15-28.26-15.22-29.34-22.42c-0.87-5.96,8.46-11.11,17.31-15.51c8.1-4.03,15.08-8.32,13.34-11.95
						c-2.15-4.45-11.41-7.53-20.61-10.98c-0.36-0.02-0.71-0.03-1.07-0.05c9.17,3.45,18.41,6.54,20.51,10.98
						c1.71,3.65-5.34,7.93-13.49,11.95c-8.91,4.4-18.32,9.53-17.51,15.51C256.63,47.51,269.76,54.61,284.75,62.76z"/>
				</g>
				<g>
					<g>
						<path class="st3" d="M263.02,6.94c2.29,1.27,4.16,2.61,5.1,4.07c-0.39-0.02-0.78-0.03-1.17-0.05
							c-0.92-1.45-2.78-2.79-5.06-4.07C262.26,6.91,262.64,6.93,263.02,6.94z M267.96,15.15c-1.08,1.5-3.12,2.9-5.63,4.27
							c-0.43-0.02-0.85-0.04-1.28-0.05c2.53-1.37,4.6-2.77,5.69-4.27C267.14,15.12,267.55,15.14,267.96,15.15z M252.73,23.97
							c-3.6,1.6-7.24,3.21-10.59,5.01c-0.47-0.02-0.95-0.04-1.42-0.05c3.38-1.8,7.04-3.41,10.67-5
							C251.83,23.93,252.28,23.95,252.73,23.97z M234.2,34.66c-1.75,1.96-2.58,4.29-2.07,6.55c-0.53-0.02-1.05-0.04-1.58-0.05
							c-0.48-2.26,0.37-4.59,2.15-6.55C233.2,34.62,233.7,34.64,234.2,34.66z M237.56,48.74c3.25,2.85,7.49,5.65,12.25,8.57
							c-0.58-0.02-1.16-0.03-1.75-0.05c-4.73-2.92-8.95-5.72-12.17-8.57C236.45,48.7,237.01,48.72,237.56,48.74z M265.9,66.94
							c5.54,3.39,10.88,6.9,15.47,10.73c-0.65-0.02-1.29-0.03-1.94-0.05c-4.55-3.83-9.87-7.34-15.37-10.73
							C264.68,66.9,265.29,66.92,265.9,66.94z M291.57,89.64c2.07,4.22,2.58,8.89,1.41,13.56c-0.74-0.01-1.48-0.02-2.22-0.03
							c1.22-4.67,0.77-9.35-1.25-13.57C290.19,89.62,290.88,89.63,291.57,89.64z M284.35,118.9c-4.66,5.94-10.59,12.05-16.97,18.63
							c-0.89,0-1.78-0.01-2.66-0.01c6.47-6.58,12.48-12.7,17.22-18.64C282.74,118.89,283.54,118.9,284.35,118.9z M246.81,160.14
							c-6.83,8.49-12.91,17.77-16.97,27.91c-1.11,0.01-2.22,0.03-3.33,0.04c4.2-10.16,10.4-19.44,17.34-27.94
							C244.83,160.14,245.82,160.14,246.81,160.14z M224.53,222.96c1.04,13.63,5.57,28.46,13.03,44.26
							c-1.42,0.05-2.84,0.11-4.26,0.16c-7.29-15.84-11.65-30.69-12.53-44.33C222.02,223.01,223.27,222.99,224.53,222.96z"/>
					</g>
					<g>
						<path class="st3" d="M249.7,1.1c1.57,0.62,3.15,1.24,4.71,1.88c-0.37-0.02-0.73-0.03-1.1-0.05c-1.56-0.64-3.13-1.26-4.69-1.88
							C248.98,1.07,249.34,1.09,249.7,1.1z"/>
					</g>
				</g>
			</g>
		</g>
	</g>
</g>
</svg>
