<?xml version="1.0" encoding="utf-8"?>
<!-- Generator: Adobe Illustrator 24.1.0, SVG Export Plug-In . SVG Version: 6.00 Build 0)  -->
<svg version="1.1" id="レイヤー_1" xmlns="http://www.w3.org/2000/svg" xmlns:xlink="http://www.w3.org/1999/xlink" x="0px"
	 y="0px" viewBox="0 0 32 22" style="enable-background:new 0 0 32 22;" xml:space="preserve">
<style type="text/css">
	.st0{fill:#0069A0;}
</style>
<path class="st0" d="M27.41,11.47l-5.78,3.84v-0.43V6.83l5.81,3.92h4.54l-1.02-0.69l-14.2-9.58L16.06,0l-0.71,0.48l-14.3,9.58
	l-1.03,0.69h4.56l5.83-3.91v0.44v8.02l-5.8-3.83H0l1.06,0.7l14.3,9.44l0.7,0.46l0.7-0.47l14.2-9.44L32,11.47H27.41z M14.79,3.91v3.1
	l2.54,2.49V3.92l3.78,2.55H19.1v5.77l-6-5.88l-0.37-0.36h-0.52h-0.53h-0.02L14.79,3.91z M14.79,12.59v5.6L11,15.69h1.95V9.78
	l6.14,6.01l0.37,0.36h0.52h0.39h0.01l-3.05,2.03v-3.1L14.79,12.59z"/>
</svg>
