<?xml version="1.0" encoding="utf-8"?>
<!-- Generator: Adobe Illustrator 23.0.4, SVG Export Plug-In . SVG Version: 6.00 Build 0)  -->
<svg version="1.1" id="レイヤー_1" xmlns="http://www.w3.org/2000/svg" xmlns:xlink="http://www.w3.org/1999/xlink" x="0px"
	 y="0px" viewBox="0 0 100 103.8" style="enable-background:new 0 0 100 103.8;" xml:space="preserve">
<style type="text/css">
	.st0{fill:#D32C00;}
	.st1{font-family:'Impact';}
	.st2{font-size:2.1654px;}
	.st3{fill:#FFE2A6;}
	.st4{fill:#380000;}
</style>
<title>apple-01-01-01-01-01-01-01-01-01-01-01-01-01-01</title>
<path class="st0" d="M53.2,29c0,0-0.8,0.8-1.2,1.1c-0.2,0.2-0.5,0.3-0.8,0.3c-0.5,0.4-1.1,0.6-1.7,0.4c-0.6-0.1-1.3-0.2-1.9-0.5
	c-4.8-1.8-9.7-2.5-14.8-0.9c-4,1.2-7.6,3.1-9.5,7.1c-1.4,2.8-2.7,5.7-4,8.6c-1.9,4.1-2.4,8.6-2.8,13c-0.4,3.2-0.3,6.3,0.3,9.5
	c0.5,2.7,0.4,5.5,1.1,8.2c1,4.4,3.1,8.5,5.9,12c3.3,3.8,7.7,6.1,12.2,8c2,0.7,4.1,1.1,6.2,1c2.4-0.2,4.9-0.6,7.2-1.1
	c-0.3,1.3,0.3,2.3,1.4,2.2c1.1-0.1,2.1,0,3.2-0.1c0.3-0.1,0.7-0.2,0.9-0.5c0-0.3-0.1-0.5-0.3-0.7c-0.1-0.2-0.2-0.4-0.4-0.7
	c3.2,0.8,6.5,1.1,9.7,1c4.2-0.2,8.3-1.6,11.7-4.1c1.7-1.5,3.1-3.3,4-5.4c1.4-2.5,2.3-5.1,2.8-7.9c0.3-2.3,0.6-4.5,0.8-6.8
	c0.2-1.6-0.7-3.3,0.2-4.8c0-0.2,0-0.3-0.1-0.5c-0.9-1.9-1.9-3.7-2.7-5.6C80,59.9,79.5,58,79.3,56c0-1,0-2,0.1-3
	c-0.4-1.3-0.6-2.6-0.7-3.9c-0.3-2.2-0.2-4.4,0.1-6.5c0.5-2,1.3-3.7,0.4-5.7l0,0c-0.5-0.4-1-0.8-1.5-1.1c-0.8-0.4-1.6-0.6-2.5-0.7
	c-0.8,0.1-1.7,0.2-2.5,0.3c0.1-0.1,0.2-0.1,0.3-0.2c-2.3,0.4-4.7,1.3-6.9,1.4c-0.2,0-0.4,0-0.6-0.1c-0.4,0-0.7-0.1-1.1-0.1
	c-2.5-0.5-4.7-2-6.1-4.2c-0.9-1.2-1.3-2.8-1-4.3C57.4,25.5,54.1,28.3,53.2,29z"/>
<title>apple-01-01-01-01-01-01-01-01-01-01-01-01-01-01</title>
<g>
	<path d="M83.5,67.3c-0.9-1.9-1.9-3.7-2.7-5.6C80,59.9,79.5,58,79.3,56c0-1,0-2,0.1-3c-0.4-1.3-0.6-2.6-0.7-3.9
		c-0.3-2.2-0.2-4.4,0.1-6.5c0.5-2,1.3-3.7,0.4-5.7l0,0c-0.5-0.4-1-0.8-1.5-1.1c-0.8-0.4-1.6-0.6-2.5-0.7c-0.8,0.1-1.7,0.2-2.5,0.3
		c0.1-0.1,0.2-0.1,0.3-0.2c-2.3,0.4-4.7,1.3-6.9,1.4c-0.2,0-0.4,0-0.6-0.1c-0.4,0-0.7-0.1-1.1-0.1c-2.5-0.5-4.7-2-6.1-4.2
		c-0.9-1.2-1.3-2.8-1-4.3c0.6-2.9,1.4-5.8,2-8.7c0.6-3,2.4-5.5,4.1-7.9c2-2.8,5.3-2.9,8.2-3.7c1-0.3,1.9-0.7,2.7-1.4
		c0.8-0.4,1.1-1.4,0.7-2.2c-0.1-0.1-0.1-0.2-0.2-0.3c-0.7-1-1.9-1.6-3.1-1.5c-1.4,0.3-2.9,0.6-4.3,0.9c-1.5,0.2-2.9,0.7-4.3,1.2
		c-2.5,1-4.5,2.9-5.7,5.3c-2,4.9-3.3,10.1-3.7,15.5c-0.1,1.3-0.3,2.6-0.5,3.9L53,28.9c-0.2,0.5-0.5,0.9-1,1.2
		c-0.2,0.2-0.5,0.3-0.8,0.3c-0.5,0.4-1.1,0.6-1.7,0.4c-0.6-0.1-1.3-0.2-1.9-0.5c-4.8-1.8-9.7-2.5-14.8-0.9c-4,1.2-7.6,3.1-9.5,7.1
		c-1.4,2.8-2.7,5.7-4,8.6c-1.9,4.1-2.4,8.6-2.8,13c-0.4,3.2-0.3,6.3,0.3,9.5c0.5,2.7,0.4,5.5,1.1,8.2c1,4.4,3.1,8.5,5.9,12
		c3.3,3.8,7.7,6.1,12.2,8c2,0.7,4.1,1.1,6.2,1c2.4-0.2,4.9-0.6,7.2-1.1c-0.3,1.3,0.3,2.3,1.4,2.2c1.1-0.1,2.1,0,3.2-0.1
		c0.3-0.1,0.7-0.2,0.9-0.5c0-0.3-0.1-0.5-0.3-0.7c-0.1-0.2-0.2-0.4-0.4-0.7c3.2,0.8,6.5,1.1,9.7,1c4.2-0.2,8.3-1.6,11.7-4.1
		c1.7-1.5,3.1-3.3,4-5.4c1.4-2.5,2.3-5.1,2.8-7.9c0.3-2.3,0.6-4.5,0.8-6.8c0.2-1.6-0.7-3.3,0.2-4.8C83.7,67.6,83.6,67.4,83.5,67.3z
		 M74.7,37.3c0.7-0.6,1.8-0.7,2.7-0.1c0.9,0.4,0.9,1.2,0.7,2.1c-0.7,2.7-1,5.5-0.7,8.3c0.1,1.4,0,2.8-0.2,4.2c0,0.4,0,0.8-0.1,1.1
		c0.9,4,1.6,8.1,3.7,11.6c0.6,1.3,0.8,2.7,0.5,4.1c-0.3,1.2-1.4,1.9-2.6,1.7c-0.6-0.2-1.3,0.1-1.5,0.6c0,0.1-0.1,0.2-0.1,0.3
		c-0.3,1.2-1.5,1.9-2.6,1.6c-0.3-0.1-0.7-0.2-0.9-0.5c-0.8-0.6-1.2-1.4-2.5-1.3c-1,0.1-2.4-2.3-2.2-3.7c0.3-1.2-0.4-2.4-1.5-2.8
		c-1.7-0.8-2-2.5-2.1-4.2c0-1,0.2-2,0.4-2.9c0.3-1.4,1.4-2.5,2.7-2.9c1.4-0.7,1.5-0.9,0.5-2.2c-1.2-1.8-0.7-4.3,1.2-5.4
		c0.3-0.2,0.6-0.3,0.9-0.4c0.5-0.1,1-0.3,1.5-0.5c0.9-0.4,1.5-0.8,0.8-2C72.6,42.6,73.5,38.5,74.7,37.3z M82.1,71.7
		c-0.3,2.4-0.6,4.8-0.9,7.2c-0.4,3.7-2,6.9-3.9,10c-2.5,4.2-6.5,5.8-11,6.5c-3.4,0.6-6.9,0.4-10.2-0.5c-1.4-0.4-2.9-0.9-4.3-1.3
		c-0.5,0-1.1,0.1-1.6,0.3c-1.2,0.4-2.4,0.8-3.7,1.1c-0.9,0.2-1.9,0.2-2.8,0.4c-3.8,0.8-7.1-0.6-10.4-2.2c-1.4-0.7-2.8-1.6-4.1-2.5
		c-3.6-2.2-5.9-5.4-7.8-9.1c-2.1-4.2-3.3-8.7-3.5-13.4c-0.3-4.3-0.7-8.6-0.1-13c0.6-4.2,1.8-8.3,3.6-12.2c1.1-2.4,2.3-4.7,3.7-7
		c2.1-3.6,5.7-5.1,9.5-6c2.8-0.8,5.7-0.9,8.5-0.2c1.6,0.4,3.1,1,4.7,1.5c1.8,0.6,3.6,1,5.3-0.6c-0.4,1.8-0.8,3.6-1.1,5.4
		c0,0.5,0.1,0.9,0.2,1.3c0.4-0.2,0.7-0.6,1-1c0.4-2,0.9-4,1.1-6c0.4-3.3,0.6-6.5,1.1-9.8c0.5-3.4,1.4-6.7,2.7-9.8
		c1.9-4.6,7.5-7.3,11-6.8c0.1,0.8,0.2,1.6,0.4,2.5c-1.1,0.3-2.3,0.5-3.3,0.8c-2.4,0.8-3.9,2.6-5.3,4.8c-2.4,3.9-3.9,8.3-4.5,12.8
		c-0.5,3.7-1.3,7.4-1.9,11.1c0,0.5,0.2,1,0.5,1.3c0.8,0.3,0.8-0.4,0.9-1c0.1-1.3,0.3-2.7,0.4-3.9c1.3,1.1,2.7,2.2,4.2,3.2
		c1.6,1,3.3,1.8,5,2.3c0.8,0.3,1.9-0.3,2.9-0.5c1.2-0.2,2.5-0.3,3.4-0.5c0,2.6-0.1,4.9-0.1,7.6c-1.2,0.7-3.3,0.8-4.2,2.9
		c-0.8,1.9-1,3.7,0.6,5.4c-4.9,1.7-4.8,8.3-3.1,11.1c0,0,0,0.1,0.1,0.1c1.9,1,2.4,2.8,2.8,4.8c0.2,0.8,0.7,1.5,1.4,2
		c1.9,1.4,3.8,3,6.4,3c0.7-0.1,1.4-0.4,1.8-1c0.4-0.9,1.3-1.5,2.3-1.7c0.7-0.2,1.4-0.6,2-1C82,70.8,82.1,71.3,82.1,71.7z"/>
	<path d="M26.1,63.2c0.1,0.3,0.1,0.7,0.1,1c-0.1,1.2,0.3,2.1,1.8,2.1l0,0.4l-1.8,0.6c-0.6,1.4-0.4,2,1.2,3c0.2,0.3,0.4,0.6,0.3,1
		c-0.2,0.7-0.3,1.3-0.3,2c0.2,0.6,0.5,1.1,0.9,1.5c0.3,0.4,0.6,0.7,0.8,1.1c-0.5-0.1-1-0.2-1.4-0.4c-0.2-0.1-0.3-0.2-0.5-0.3
		c0.2,1.2-0.8,2.5,0.6,3.5l0.7-1c0.2,0.3,0.4,0.7,0.4,1c0,1.1,0.7,2.1,1.7,2.6c0.2,0.2,0.3,0.5,0.4,0.7c-0.3,0-0.5,0-0.8,0
		c-0.3-0.1-0.5-0.2-0.8-0.4l-0.2,3.6l-0.5,0c-0.2-0.9-0.3-1.9-0.4-2.8c0.1-1.5-0.6-2.9-1.9-3.6c-0.3-0.2-0.5-0.4-0.7-0.6
		c-0.3-0.4-0.6-0.9-0.9-1.4l1.6,0c-0.1-0.8,0.3-1.9-0.7-3L25.5,75c-0.6-0.9-1.1-1.9-1.5-2.9c0.2-0.4,0.5-0.7,0.8-1l0.4,0.1
		c-0.2-0.6-0.4-1.2-0.7-1.8c-0.2-0.4-0.5-0.8-0.7-1.2l1.5-0.1c0-1.2,0.2-2.7-1.5-3.6l-0.5,2.2l-0.1,0l-0.4-4.6
		c0.5-0.2,0.8-0.7,0.6-1.2c-0.1-0.2-0.2-0.4-0.4-0.5c0.3-0.5,0.6-0.9,1-1.4c0.1-1.8,0.2-4,0.3-6.2c0.1-0.9,0.2-1,1.3-1.1
		c-0.3,2.6-0.7,5.2-0.9,7.8c0.1,0.7,0.4,1.3,0.8,1.9c0.3,0.4,0.7,0.7,1.1,1C27.1,63.1,26.7,63.2,26.1,63.2c-0.6-0.4-1.2-0.8-1.7-1.2
		L24,62.2c0.3,0.7,0.6,1.3,0.9,2.1L26.1,63.2z M26.1,73.1l0.6-0.1l-0.3-2.1L25.8,71C25.9,71.7,26,72.4,26.1,73.1L26.1,73.1z"/>
	<path d="M55.4,41.4c-3.2,0.4-5.3-1.2-7-3.6c-0.5-0.7-0.9-1.4-1.2-2.2c-0.1-0.4,0-0.8,0-1.1c0.4,0,0.7,0,1,0.2
		c0.9,0.9,1.7,1.9,2.4,2.9c1.8,2.2,4.9,2.7,7.2,1.2c0.5-0.2,1-0.4,1.5-0.4c0.2,0.2,0.3,0.5,0.3,0.8c-0.3,0.5-0.7,0.9-1.2,1.2
		C57.5,40.8,56.4,41.1,55.4,41.4z"/>
	<path d="M55.1,38.5c-1.2,0.5-2.2,0-3.1-0.7c-0.3-0.2-0.5-0.5-0.7-0.7c-0.1-0.1-0.1-0.3-0.1-0.5c0.1,0,0.3-0.1,0.4,0
		c0.4,0.3,0.8,0.6,1.2,0.9c0.9,0.7,2.2,0.6,3-0.2c0.2-0.1,0.3-0.2,0.5-0.3c0.1,0.1,0.2,0.2,0.2,0.3c-0.1,0.2-0.2,0.4-0.4,0.6
		C55.8,38.1,55.4,38.3,55.1,38.5z"/>
</g>
<text transform="matrix(1 0 0 1 32.3059 100.6763)" class="st1 st2">Created by Tatyana from the Noun Project</text>
<path class="st3" d="M74.7,37.3c0.7-0.6,1.8-0.7,2.7-0.1c0.9,0.4,0.9,1.2,0.7,2.1c-0.7,2.7-1,5.5-0.7,8.3c0.1,1.4,0,2.8-0.2,4.2
	c0,0.4,0,0.8-0.1,1.1c0.9,4,1.6,8.1,3.7,11.6c0.6,1.3,0.8,2.7,0.5,4.1c-0.3,1.2-1.4,1.9-2.6,1.7c-0.6-0.2-1.3,0.1-1.5,0.6
	c0,0.1-0.1,0.2-0.1,0.3c-0.3,1.2-1.5,1.9-2.6,1.6c-0.3-0.1-0.7-0.2-0.9-0.5c-0.8-0.6-1.2-1.4-2.5-1.3c-1,0.1-2.4-2.3-2.2-3.7
	c0.3-1.2-0.4-2.4-1.5-2.8c-1.7-0.8-2-2.5-2.1-4.2c0-1,0.2-2,0.4-2.9c0.3-1.4,1.4-2.5,2.7-2.9c1.4-0.7,1.5-0.9,0.5-2.2
	c-1.2-1.8-0.7-4.3,1.2-5.4c0.3-0.2,0.6-0.3,0.9-0.4c0.5-0.1,1-0.3,1.5-0.5c0.9-0.4,1.5-0.8,0.8-2C72.6,42.6,73.5,38.5,74.7,37.3z"/>
<path class="st4" d="M52.2,37.7c0.4-0.2,0.7-0.6,1-1c0.4-2,0.9-4,1.1-6c0.4-3.3,0.6-6.5,1.1-9.8c0.5-3.4,1.4-6.7,2.7-9.8
	c1.9-4.6,7.5-7.3,11-6.8c3.7-1,5.6,1.4,0.4,2.5c-1.1,0.3-2.3,0.5-3.3,0.8c-2.4,0.8-3.9,2.6-5.3,4.8c-2.4,3.9-3.9,8.3-4.5,12.8
	c-0.5,3.7-1.3,7.4-1.9,11.1c0,0.5,0.2,1,0.5,1.3c0,0,0.1,0.5-1.3,0.5S52.2,37.7,52.2,37.7z"/>
<g>
	<path d="M44.4,74.8c0,0.1,0,0.2,0,0.2c0,0,0,0,0,0.1c0,0,0,0.1,0,0.1l-0.1,0.1l0.1,0.1l0,0.1c0,0.1,0,0.1,0,0.2c0,0.1,0,0.1,0,0.1
		c0,0,0,0,0,0.1c0,0,0,0.1-0.1,0.2c0,0.1-0.1,0.1-0.1,0.2c0,0,0,0.1-0.1,0.1l-0.1,0.1c0,0.1-0.1,0.1-0.4,0.1c-0.2,0-0.9,0-2.7,0
		h-0.4l0,0.1c0,0.1,0,0.2,0,0.3c0.1,0.1,0,0.1,0,0.3c0,0.1,0,0.1,0,0.2c0,0.1,0.1,0.2,0,0.2c0,0,0,0.1,0,0.2c0,0,0,0.5,0,0.6v0.4
		c0,0.1,0,0.1,0,0.2c0,0,0,0.1,0,0.1s0,0.1,0,0.2v0.3c0,0,0,0.3,0,0.6c0,0.3-0.1,0.6-0.1,0.7c0,0.1,0,0.2,0,0.3c0,0,0,0.1,0,0.1
		c0,0,0,0.6,0,0.8c0,0.1,0,0.1,0,0.1c0,0,0,0.1,0,0.2c0,0.2-0.1,0.6-0.3,1.2c-0.1,0.3-0.1,0.5-0.1,0.6s0,0.1,0,0.1
		c0,0,0,0.1-0.1,0.3s-0.1,0.3-0.1,0.4c0,0.1-0.1,0.7-0.1,0.8c0,0.1,0,0.2,0,0.3c0,0.1,0,0.1,0,0.2v0.1l0,0.1v0c0,0,0,0,0,0.1
		c0,0,0,0.1,0,0.2c0,0.3,0.2,1.4,0.2,1.6c0,0,0,0.1,0,0.1l0,0.1c0,0.1,0,0.1-0.1,0.3c-0.1,0.1-0.1,0.1-0.1,0.1c0,0-0.1,0-0.1,0.1
		c-0.1,0-0.1,0-0.1,0.1l-0.1,0l-0.1,0c0,0-0.2,0-0.3-0.1c-0.3,0-0.6-0.1-0.6-0.1c0,0-0.1,0-0.1,0c-0.1,0-0.1,0-0.2-0.1
		c-0.1-0.1-0.2-0.2-0.3-0.4L37.8,88c0,0,0-0.1,0-0.1l-0.1-0.2l0-0.1v-0.1l0-0.1c-0.1-0.1-0.1-0.1-0.1-0.3c0-0.1,0-0.3,0-0.3
		c0-0.1,0-0.2,0-0.2c0-0.1,0.1-0.2,0-0.3c0-0.1-0.1-0.1-0.1-0.2s0-0.1,0-0.1v-0.4c0-0.1,0-0.6,0.1-0.8c0,0,0-0.2,0-0.3v-0.3
		c0-0.5,0-0.6,0-0.6l0-0.1v-0.2c0,0,0-0.1,0-0.1c0-0.1,0-0.1,0-0.1c0,0,0-0.1,0-0.1v-0.2c0,0,0-0.1,0-0.1c0,0,0-0.1,0-0.1
		c0-0.1,0-0.1,0-0.1v-0.2c0-0.1,0-0.3,0-0.5c0-0.2,0-0.3,0-0.3v-0.7c0-0.1,0-0.3,0-0.3c0,0,0-0.1,0-0.3c0-0.1,0-0.2,0-0.3
		c0,0,0-0.1,0-0.2c0-0.1,0-0.1,0-0.1v-0.2c0-0.1,0-0.2,0-0.2c0,0,0-0.1,0-0.1l0-0.1V79c0,0,0-0.1,0-0.2s0-0.2,0-0.3
		c0-0.1,0-0.2,0-0.2c0-0.1,0-0.1,0-0.1c0,0,0,0,0-0.1c0,0,0-0.1,0-0.2c0-0.1,0-0.1,0-0.1c0,0-0.1-0.3,0-0.4c0-0.1,0-0.1,0-0.1l0,0
		c0-0.1,0-0.2-0.1-0.2C37,77,36.9,77,36.5,77.1c-0.2,0-0.3,0-0.4,0c0,0-0.1,0-0.1,0c0,0-0.1,0-0.2,0c-0.1,0-0.2,0-0.2,0
		c-0.1,0-0.1,0-0.1,0s-0.1,0-0.1,0c-0.1,0-0.1,0-0.2,0c-0.1,0-0.4-0.1-0.6-0.1c-0.1,0-0.1,0-0.1,0c0,0-0.3-0.1-0.3-0.1
		c0,0-0.1,0-0.1,0s-0.1,0-0.2-0.1c0,0-0.1,0-0.1,0c0,0-0.1-0.1-0.1-0.1s-0.1,0-0.1-0.1c0-0.1-0.1-0.1-0.1-0.1c0,0-0.1,0-0.1,0
		s-0.1-0.1-0.1-0.1c0,0-0.1,0-0.1-0.1c-0.1,0-0.1,0-0.1-0.1c-0.1,0-0.1-0.1-0.1-0.1c0,0,0-0.1,0-0.1c-0.1-0.1-0.2-0.2-0.2-0.3
		c0-0.1,0-0.1,0-0.1s0,0,0,0l0-0.1c0,0,0,0,0-0.1c-0.1,0-0.1-0.1-0.1-0.2V75l0.1-0.1l0.1-0.1c0,0,0,0,0.1-0.1c0.1,0,0.1,0,0.1-0.1
		v-0.1l0.1,0c0.1,0,0.1,0,0.1,0c0,0,0,0,0-0.1c0-0.1,0-0.1,0.1-0.1c0.1,0,0.1,0,0.1-0.1v0c0,0,0,0,0.1-0.1c0.1-0.1,0.2-0.1,0.2,0h0
		c0,0,0,0,0.1,0s0.2,0,0.2,0l0.1-0.1c0,0,0.1,0,0.1-0.1c0,0,0.1-0.1,0.1,0c0.1,0,0.1,0,0.1,0c0,0,0.1,0,0.1,0s0.2-0.1,0.2-0.1
		c0.1-0.1,0.2-0.1,0.2-0.1c0,0,0.1,0,0.1-0.1c0,0,0.1-0.1,0.1-0.1c0.1,0,0.1,0,0.1,0c0,0,0.1,0,0.1,0c0.1,0,0.1,0,0.1,0
		c0.1,0,0.1,0,0.2-0.1c0,0,0.1-0.1,0.1-0.1c0,0,0.2-0.1,0.3-0.1c0,0,0.1,0,0.1,0c0,0,0.1,0,0.1,0s0,0,0.1,0c0,0,0.1,0,0.1,0
		c0.1,0,0.1,0,0.2,0c0,0,0,0,0.1,0c0.1-0.1,0.3-0.1,0.3-0.1c0,0,0.1,0,0.1,0l0.1,0c0,0,0.1,0,0.1,0c0.1,0,0.1,0,0.1,0h0.2
		c0.1,0,0.2,0,0.2,0H38c0.1,0,0.2,0,0.2,0c0,0,0,0,0.1,0c0.2,0,0.3,0,0.4,0c0,0,0.2,0,0.3,0c0.1,0,0.2,0,0.3,0c0,0,0,0,0.1,0
		s0.7,0.1,0.8,0.1c0.1,0,0.1,0,0.2,0c0,0,0.3,0,0.3,0l0.1,0c0,0,0,0,0.1,0c0.1,0,0.4,0,0.5-0.1c0.1,0,0.3,0,0.4,0.1
		c0,0,0.1,0.1,0.1,0.1h0.1c0.1,0,0.1,0,0.1,0c0,0,0.1,0,0.1,0c0,0,0.1,0,0.1,0s0,0,0.1,0c0.1,0,0.1,0,0.1,0s0.1,0.1,0.1,0
		c0,0,0,0,0.1,0c0,0,0.1,0,0.1,0.1c0,0,0.1,0,0.1,0c0,0,0.1,0,0.1,0l0.1,0c0.1,0,0.2,0.1,0.3,0.1c0,0,0.1,0,0.2,0.1
		c0,0,0.2,0.1,0.2,0.1s0.2,0.1,0.2,0.1c0.1,0,0.2,0.1,0.4,0.2c0.2,0.2,0.3,0.2,0.3,0.3c0,0.1,0.1,0.2,0,0.3
		C44.4,74.5,44.4,74.6,44.4,74.8z"/>
	<path d="M51.6,74.4v0.8c0,0.2,0,0.5,0,0.6c0,0.1,0,0.3,0,0.4v0.2l0,0.8c0,0.5,0,0.9-0.1,1c0,0.1,0,0.2,0,0.3c0,0.1,0,0.2,0,0.4
		c0,0.2,0,0.5,0,0.7s0,0.5,0,0.6c0,0.1,0,0.2,0,0.3c0,0.1,0,0.2,0,0.4c0,0.1,0,0.1,0,0.1v0.1c0,0,0,0.1,0,0.1c0,0,0,0,0,0.1
		c0,0.1,0,0.1,0,0.1v0c0,0,0,0.1,0,0.1v0.2c0,0,0,0.1,0,0.2c0,0.1,0,0.2-0.1,0.5c-0.1,0.2-0.1,0.4-0.1,0.5c0,0.1,0,0.2,0,0.3
		c0,0.1,0,0.4,0,0.7c0.1,0.6,0.1,0.8,0.1,1.2c0,0.3,0,0.4,0,0.4s0,0.1,0,0.4c0,0.2,0,0.4,0,0.4c0,0,0,0.2,0,0.5c0,0.3,0,0.4,0,0.4
		c0,0,0,0.2,0,0.3c0,0.2,0,0.2,0,0.3c0,0,0,0.1,0,0.1c0,0.1,0,0.1-0.1,0.1c0,0-0.1,0-0.1,0.1l-0.1,0.1l0,0l0,0.1
		c0,0-0.1,0.1-0.1,0.1c0,0.1-0.1,0.2-0.3,0.3c-0.1,0-0.1,0.1-0.1,0.1c0,0,0,0.1-0.1,0.1c0,0-0.1,0-0.1-0.1s-0.1,0-0.1,0
		c0,0-0.1,0-0.2,0c-0.2-0.1-0.3-0.1-0.4-0.2c0,0-0.1-0.1-0.1-0.1c0,0-0.1-0.1-0.1-0.1c-0.1-0.1-0.1-0.1-0.2-0.2c0,0-0.1-0.2-0.1-0.3
		c0-0.2-0.1-0.3-0.1-0.3c0,0,0,0,0-0.1c0-0.1,0-0.1-0.1-0.2c0-0.1-0.1-0.2-0.1-0.3c-0.2-0.5-0.2-0.6-0.3-0.6c0,0-0.2-0.3-0.2-0.3
		l0-0.1c0,0,0-0.1-0.1-0.2c0-0.1,0-0.1,0-0.2s0-0.1,0-0.1c0-0.1,0-0.1,0-0.1c0,0,0,0,0-0.1l0-0.1c0,0,0-0.1,0-0.1c0,0,0-0.1,0.1-0.2
		l0-0.2v-0.1c0,0,0-0.1,0-0.1c0.1-0.1,0.1-0.4,0.1-0.8c0-0.1,0-0.2,0-0.2v-0.2c0-0.1,0-0.2,0-0.3s0-0.2,0-0.2v-0.2
		c0-0.1,0-0.2,0-0.3c0-0.1,0-0.1,0-0.2v-0.9c0-0.1,0-0.2,0-0.3l0-0.2c0,0,0-0.1,0-0.2s0-0.2,0-0.3c0,0,0-0.2,0-0.3l0.1-0.4l0-0.3
		v-0.1c0,0,0-0.1,0-0.2s0-0.3,0-0.4c0-0.1,0-0.2,0-0.2v-0.1l0-0.3c0-0.2,0-0.4,0.1-0.6c0-0.1,0-0.3,0-0.3c0-0.2,0-0.4,0-0.5
		c0,0-0.1,0-0.1,0l0,0c0,0-0.1,0-0.1,0.1l0,0c0,0-0.1,0-0.1,0.1c-0.1,0.1-0.1,0.1-0.2,0.1c-0.1,0-0.1,0-0.1,0l-0.1,0
		c0,0-0.1,0-0.2,0c-0.1,0-0.2,0-0.5,0c-0.3,0-0.3,0-0.4,0c0,0-0.1,0-0.1,0c-0.1,0-0.1,0-0.1,0l0,0c0,0,0,0-0.1-0.1
		c0,0-0.1-0.1-0.1-0.1c0,0,0,0-0.1,0l0,0l0,0c0,0,0,0-0.1-0.1l-0.1-0.1l0-0.1c0,0,0,0,0-0.1c-0.1,0-0.1-0.1-0.1-0.2
		c0-0.1,0-0.1,0-0.2c0-0.1,0-0.1,0-0.1c0,0,0.1-0.1,0.1-0.2c0-0.1,0.1-0.1,0.1-0.1l0,0c0,0,0.1-0.1,0.1-0.1c0.1,0,0.1-0.1,0.2-0.2
		c0.1-0.1,0.2-0.2,0.2-0.2c0,0,0,0,0,0l0,0c0,0,0,0,0,0s0-0.1,0.1-0.1c0.1,0,0.1-0.1,0.2-0.2l0,0c0,0,0.2-0.2,0.2-0.2l0,0l0.1,0
		c0,0,0.1-0.1,0.1-0.1c0,0,0,0,0.1-0.1c0-0.1,0.1-0.1,0.1-0.1s0,0,0.1-0.1C48,74.1,48,74,48,74c0,0,0.1-0.1,0.1-0.1
		c0-0.1,0.1-0.1,0.1-0.2l0-0.1c0.1,0,0.1-0.1,0.1-0.2c0,0,0-0.1,0-0.1l0-0.1l0-0.1c0,0,0.1-0.1,0.1-0.1c0.1-0.1,0.2-0.2,0.3-0.3
		c0.1,0,0.4-0.1,0.6,0c0.1,0,0.3,0.1,0.4,0.1c0.2,0,0.4-0.1,0.4,0c0,0,0,0,0.1,0c0,0,0.1,0,0.2,0c0.1,0,0.2,0.1,0.2,0.1
		c0,0,0.1,0,0.1,0l0.1,0l0,0c0,0,0,0.1,0.1,0.1s0.4,0.4,0.4,0.5c0.1,0.3,0.1,0.5,0.1,0.6C51.6,74.1,51.6,74.3,51.6,74.4z"/>
	<path d="M64.9,85.1C64.9,85.1,64.9,85.1,64.9,85.1c-0.1,0.1-0.1,0.1-0.1,0.2c0,0-0.1,0.1-0.1,0.1c0,0-0.1,0-0.1,0.1
		c-0.1,0.1-0.1,0.1-0.2,0.1c-0.1,0-0.1,0.1-0.2,0.1c-0.1,0-0.1,0-0.2,0c-0.1,0-0.2,0-0.2,0h-0.2c0,0-0.1,0-0.3,0.1
		c-0.3,0.1-0.7,0.1-0.9,0c-0.1,0-0.1,0-0.1,0v0.1c0,0,0,0.2,0,0.3c0,0.3,0,0.8,0.1,0.9l0,0.1c0,0.1,0,0.1,0,0.2c0,0,0,0.1,0,0.1
		c0,0,0,0.1,0,0.1v0.9l0,0c0,0-0.1,0-0.1,0.1s-0.1,0.1-0.1,0.1c0,0-0.1,0.1-0.2,0.1c-0.2,0.1-0.4,0.1-0.5,0c-0.1,0-0.1,0-0.1,0
		c-0.1,0-0.3-0.1-0.3-0.1c0,0-0.1-0.1-0.2-0.1c-0.1,0-0.1-0.1-0.2-0.2c-0.1-0.1-0.1-0.1-0.2-0.1c-0.1,0-0.2-0.1-0.2-0.3
		c0-0.1,0-0.2,0-0.3c0-0.1-0.1-0.2-0.1-0.2c0-0.1-0.1-0.3-0.1-0.3l0-0.1c0,0,0-0.1,0-0.2c0-0.1,0-0.1,0-0.1c0,0,0-0.1-0.1-0.2
		c0,0,0-0.1,0-0.1c0,0,0-0.3,0-0.3c0,0,0-0.1,0-0.1s0-0.1,0-0.2l0-0.1h-0.1c-0.1,0-0.3,0-0.5-0.1c-0.4-0.1-0.7-0.1-0.7,0
		c0,0-0.1,0-0.3,0c-0.1,0-0.3,0-0.4,0.1c-0.1,0-0.2,0-0.3,0c0,0-0.1,0-0.1,0c0,0-0.1,0-0.1,0c0,0-0.1,0-0.2,0c0,0-0.1,0-0.1,0
		c-0.1,0-0.1,0-0.1,0c0,0,0,0-0.1,0c-0.1,0-0.1,0-0.2,0c-0.1,0-0.1,0-0.1,0.1c-0.1,0-0.1,0.1-0.2,0.1c-0.1,0.1-0.2,0.1-0.2,0.1
		l-0.2,0c-0.1,0-0.2,0-0.2,0h-0.2c-0.1,0-0.2,0-0.2,0c0,0-0.1,0-0.1,0c-0.1,0-0.1-0.1-0.2-0.1c-0.1-0.1-0.1-0.1-0.2-0.2
		c-0.1,0-0.1-0.1-0.1-0.1c0,0,0,0-0.1-0.1c0-0.1-0.1-0.2-0.2-0.5c-0.1-0.2-0.1-0.3-0.1-0.4c0-0.1,0-0.1,0-0.1s0,0,0-0.1
		c0,0,0-0.1,0-0.1l0-0.1c0,0,0-0.1,0-0.2c0-0.1-0.1-0.1,0-0.2c0,0,0-0.1,0-0.1c0-0.1,0-0.5,0-0.7c0-0.2,0.2-0.4,0.2-0.5
		s0.1-0.1,0.1-0.3c0-0.1,0-0.1,0-0.1c0,0.1,0.1,0.1,0.1,0c0,0,0.1,0,0.1-0.1l0-0.1l0-0.1c0,0,0-0.1,0-0.1c0,0,0-0.1,0.1-0.1
		c0,0,0.1-0.1,0.1-0.1l0-0.1c0,0,0-0.1,0-0.2c0-0.1,0-0.2,0.1-0.2c0,0,0-0.1,0-0.1c0,0,0,0,0-0.1l0-0.1c0-0.1,0-0.1,0.1-0.1
		c0,0,0.1,0,0.1-0.1l0.1-0.2l0-0.1c0,0,0-0.1,0.1-0.1c0-0.1,0-0.1,0-0.1l0-0.1c0,0,0.1-0.1,0.1-0.1c0,0,0.1-0.1,0.1-0.1
		c0,0,0.1-0.1,0.1-0.1c0-0.1,0.1-0.1,0.1-0.2c0.1-0.1,0.3-0.5,0.4-0.6c0,0,0.1-0.1,0.1-0.2l0.3-0.5c0.1-0.2,0.3-0.4,0.3-0.5
		c0-0.1,0.1-0.2,0.1-0.2c0-0.1,0.1-0.1,0.1-0.2s0-0.1,0-0.1l0-0.1c0,0,0-0.1,0.1-0.1s0.1-0.2,0.2-0.2c0.1-0.1,0.1-0.3,0.2-0.3
		s0.1-0.1,0.1-0.2c0.1-0.2,0.3-0.6,0.4-0.7c0-0.1,0.1-0.2,0.1-0.2c0,0,0-0.1,0.1-0.1c0,0,0.1-0.1,0.1-0.1c0,0,0.1-0.1,0.1-0.2
		l0.1-0.1l0-0.1c0,0,0,0,0.1-0.1c0.1-0.1,0.1-0.1,0.1-0.2s0-0.2,0.1-0.2c0,0,0-0.1,0-0.1c0-0.1,0.1-0.2,0.2-0.2c0,0,0,0,0,0
		c0,0,0,0,0.1-0.1c0.1-0.1,0.1-0.1,0.1-0.2l0-0.1l0,0c0,0,0-0.1,0-0.1c0,0,0.1-0.1,0-0.1c0-0.1,0-0.1,0.1-0.1c0.1,0,0.1-0.1,0.1-0.2
		c0-0.1,0-0.1,0-0.1c0.1,0,0.1-0.1,0.1-0.1c0-0.1,0-0.2,0.1-0.2c0,0,0,0,0-0.1c0-0.1,0-0.1,0.1-0.1c0,0,0-0.1,0.1-0.1
		c0,0,0.1-0.1,0.1-0.1c0-0.1,0.1-0.1,0.2,0c0.1,0,0.2,0,0.2,0c0.2,0,0.5-0.1,0.5,0s0.1,0,0.1,0l0-0.1l0,0h0.1c0,0,0,0,0.1,0l0,0.1
		c0,0,0,0,0.1,0.1c0.1,0,0.1,0,0.1,0c0,0,0,0,0.1,0c0.1,0,0.2,0.4,0.2,0.5c0,0.2,0.1,0.3,0.1,0.3c0,0,0,0.1,0,0.1
		c0,0.2,0.1,0.4,0.1,0.5c0.1,0.1,0.1,0.1,0.1,0.2c0,0.1,0,0.2,0,0.2c0,0.1,0.1,0.1,0.1,0.1c0,0,0,0.1,0,0.1c0,0.2,0,0.3,0,0.4l0,0
		c0,0,0,0.1,0.1,0.2c0,0.1,0,0.2,0,0.2s0,0.1,0,0.2c0,0.1,0.1,0.2,0.1,0.3c0,0.1,0,0.2,0,0.2s0,0.2,0,0.4c0,0.3,0,0.3,0,0.6
		c0,0.1-0.1,0.3-0.1,0.3v0.1l0,0c0,0-0.1,0.2-0.1,0.4c0,0.4-0.1,0.7-0.1,0.7c-0.1,0.2-0.1,0.5-0.1,0.6c0,0.1,0,0.1,0,0.1
		c-0.1,0.1,0,2,0,2.4c0,0.1,0,0.3,0,0.4c0,0.4,0,0.5,0.1,0.5c0,0,0.1,0,0.1,0c0,0,0.1,0,0.1,0c0,0,0,0,0,0c0,0,0,0,0.1,0
		c0.1,0,0.1,0.1,0.2,0.1c0.1,0,0.2,0.1,0.3,0.2l0.1,0.1c0,0,0.1,0.1,0.2,0.1l0.1,0.1c0,0,0.1,0.1,0.2,0.1c0.2,0.1,0.3,0.2,0.4,0.2
		l0.2,0.1c0,0,0.1,0.1,0.1,0.1c0.1,0,0.2,0.1,0.2,0.1l0.1,0.1c0,0,0,0,0.1,0.1l0.1,0.1c0,0,0,0.1,0,0.2s0,0.1,0,0.1
		c0.1,0,0.1,0.2,0,0.3L64.9,85.1z M60.2,76.7L60.2,76.7c0-0.1-0.1-0.1-0.1-0.1c0,0-0.1,0.1-0.1,0.1L60,76.8l0,0.1c0,0,0,0.1-0.1,0.1
		h0l0,0h0c0,0-0.1,0.1-0.1,0.1c0,0-0.1,0.1-0.1,0.1c0,0,0,0.1-0.1,0.1c0,0-0.1,0-0.1,0l0,0c0,0-0.1,0.1-0.1,0.1c0,0,0,0.1-0.1,0.1
		c-0.1,0.1-0.1,0.1-0.1,0.1c0,0-0.1,0.1-0.1,0.1c0,0-0.1,0.1-0.1,0.1c0,0.1-0.1,0.2-0.1,0.2c0,0-0.1,0.1-0.1,0.2l-0.1,0.2
		c0,0.1-0.1,0.1-0.1,0.1c0,0.1,0,0.1-0.1,0.1c0,0,0,0.1-0.1,0.1s-0.1,0.1-0.1,0.1l0,0.1l0,0.1c0,0,0,0.1-0.1,0.1c0,0,0,0.1-0.1,0.1
		c0,0,0,0.1-0.1,0.1l-0.1,0.2c0,0.1-0.1,0.1-0.1,0.2c0,0,0,0.1-0.1,0.1c0,0-0.1,0.1-0.1,0.2c0,0.1-0.1,0.2-0.2,0.3
		c-0.1,0.2-0.2,0.6-0.2,0.6l0,0c0,0,0,0.1,0,0.1c0,0.1-0.1,0.2-0.1,0.2l0,0.1c0,0,0,0,0,0.1s0,0.1,0,0.1v0.1l0,0.1c0,0,0,0.1,0,0.1
		c0,0.1,0,0.1,0,0.2v0.1c0,0,0,0.1,0,0.1c0,0.1,0,0.1,0,0.1c0,0.1,0,0.2,0,0.2s0.1,0.1,0.2,0.1c0.2,0,0.9,0.1,1.2,0.1H60
		c0,0,0-0.1,0-0.1c0,0,0-0.1,0-0.1c0,0,0,0,0-0.1c0-0.3,0.1-0.5,0.1-0.8c0-0.2,0-0.4,0-0.4v-1.4c0-0.1,0-0.5,0-0.8
		c0-0.3,0-0.7,0-0.9v-0.9c0,0,0-0.1,0-0.1v-0.2c0-0.1,0-0.2,0-0.3S60.2,76.8,60.2,76.7L60.2,76.7z"/>
	<path d="M70.5,76.3c0,0.1,0,0.1,0,0.2v0.2c0,0.1,0,0.1-0.1,0.4l-0.1,0.2c0,0,0,0.1-0.1,0.1s-0.1,0.1-0.1,0.2c0,0.1-0.1,0.1-0.1,0.1
		c0,0-0.1,0.1-0.1,0.2c0,0.1-0.1,0.1-0.1,0.1l-0.4,0.3c0,0-0.1,0-0.1,0c-0.1,0-0.3,0.1-0.3,0.1c0,0-0.1,0-0.1,0c-0.1,0-0.2,0-0.2,0
		c-0.1,0-0.1,0-0.2,0c-0.3-0.1-0.6-0.2-0.9-0.5c-0.2-0.2-0.3-0.5-0.3-0.6c0-0.1,0-0.1,0-0.1c0,0-0.1-0.4-0.1-0.5c0,0,0-0.1,0-0.1
		c0,0,0-0.1,0-0.2c0-0.1,0-0.2,0-0.2c0,0,0-0.1,0-0.1c0-0.1,0-0.1,0-0.1c0,0,0-0.1,0-0.1c0-0.1,0-0.1,0-0.1c0,0,0-0.1,0-0.1
		s0-0.1,0.1-0.2c0-0.1,0.1-0.1,0.1-0.2s0-0.1,0.2-0.2c0.1-0.1,0.3-0.2,0.3-0.2l0-0.1l0.1,0c0,0,0.1,0,0.1-0.1s0-0.1,0.1-0.2l0.1-0.1
		c0,0,0-0.1,0.1-0.1c0.1,0,0.3,0,0.3,0h0.3c0.3,0,0.4,0,0.4,0.1c0,0,0,0,0.2,0.1c0.1,0,0.2,0.1,0.2,0.1c0.1,0.1,0.1,0.1,0.3,0.3
		c0,0,0.1,0.1,0.1,0.1c0.1,0.1,0.1,0.1,0.1,0.1c0,0,0,0.1,0.1,0.1c0.1,0.1,0.1,0.1,0.1,0.1c0,0,0,0.1,0,0.1c0,0,0,0.1,0,0.1
		s0,0.1,0.1,0.2c0.1,0.2,0.1,0.3,0.1,0.3C70.5,76.2,70.5,76.2,70.5,76.3z M70,85.4c0,0.2-0.1,0.5-0.1,0.5c0,0.1,0,0.1,0,0.2v0.3
		c0,0.2,0,0.4,0,0.5c0,0.2,0,0.3,0,0.3s0,0.1,0,0.4c0,0.2,0,0.3-0.1,0.4c0,0.1-0.1,0.2-0.1,0.2c0,0,0,0.1-0.2,0.2
		c-0.1,0.1-0.2,0.1-0.2,0.1c0,0-0.2,0-0.2,0c-0.1,0.1-0.2,0.1-0.3,0c0,0.1,0,0-0.1-0.1c-0.1-0.1-0.1-0.1-0.2-0.1c-0.1,0-0.1,0-0.1,0
		s-0.1-0.1-0.1-0.1c-0.1,0-0.1-0.1-0.2-0.2c0-0.1-0.1-0.2-0.1-0.2c0,0-0.1-0.1-0.1-0.1c0,0,0-0.1,0-0.1c0,0,0,0,0-0.1s0-0.1,0-0.1
		s0-0.1,0-0.1c0,0,0-0.2-0.1-0.3c0-0.1-0.1-0.2-0.1-0.3c0-0.1-0.1-0.3-0.1-0.4c0,0,0,0,0-0.1v-0.2c0-0.1,0-0.2,0-0.2v-0.1
		c0,0,0,0,0-0.1s0-0.1-0.1-0.2c0-0.1,0-0.1,0-0.1c0,0,0,0,0-0.1v-0.1c0,0,0,0,0-0.1c0-0.1,0-0.2,0-0.2c0,0,0-0.1,0-0.1
		c0,0,0-0.1,0-0.3c-0.1-0.2-0.1-0.3-0.1-0.4c0-0.1,0-0.2,0-0.2c0-0.1,0-0.1,0-0.1c0,0,0-0.1,0-0.1l0-0.1c0,0,0.1-0.1,0.1-0.2
		c0-0.2,0.1-0.3,0.1-0.3l0-0.1c0,0,0-0.2,0.1-0.3c0.1-0.2,0.1-0.4,0.2-0.6s0.1-0.3,0.1-0.3c0,0,0-0.1,0.1-0.1c0,0,0.1-0.2,0.1-0.3
		c0.1-0.2,0.2-0.3,0.2-0.4l0-0.1c0,0,0.1-0.1,0.2-0.2c0.1-0.1,0.1-0.2,0.2-0.2c0.1-0.1,0.2,0,0.3,0c0.1,0,0.1,0,0.1,0
		c0,0,0.1,0,0.1,0c0,0,0,0.1,0.1,0.1l0.1,0.1c0,0,0.1,0.1,0.1,0.2c0.1,0.1,0.1,0.2,0.1,0.2c0,0,0,0.1,0.1,0.2c0,0,0,0.1,0,0.1
		c0,0,0,0.1,0.1,0.3s0.1,0.3,0.1,0.3c0,0,0,0.1,0,0.1c0,0.1,0,0.1,0,0.5c0,0.2,0,0.3,0.1,0.4s0.1,0.2,0.1,0.3c0,0.1,0,0.3,0,0.5v0.5
		c0,0.1,0,0.1,0,0.2c0,0,0,0.1,0,0.1C70,85.1,70,85.3,70,85.4z"/>
</g>
</svg>
